<?xml version="1.0" encoding="UTF-8" standalone="no"?>
<!-- Created with Inkscape (http://www.inkscape.org/) -->

<svg
   width="100mm"
   height="19.354mm"
   viewBox="0 0 100 19.354"
   version="1.1"
   id="svg3658"
   xml:space="preserve"
   xmlns:inkscape="http://www.inkscape.org/namespaces/inkscape"
   xmlns:sodipodi="http://sodipodi.sourceforge.net/DTD/sodipodi-0.dtd"
   xmlns="http://www.w3.org/2000/svg"
   xmlns:svg="http://www.w3.org/2000/svg"><sodipodi:namedview
     id="namedview3660"
     pagecolor="#ffffff"
     bordercolor="#000000"
     borderopacity="0.25"
     inkscape:showpageshadow="2"
     inkscape:pageopacity="0.0"
     inkscape:pagecheckerboard="0"
     inkscape:deskcolor="#d1d1d1"
     inkscape:document-units="mm"
     showgrid="false" /><defs
     id="defs3655" /><g
     inkscape:label="Layer 1"
     inkscape:groupmode="layer"
     id="layer1"><path
       d="M 6.334843,19.055707 H 2.5668361 V 9.6625514 H 0 V 6.6043299 H 2.5667362 V 4.428186 C 2.5667362,1.8494523 3.7020081,0 7.4598148,0 8.2545951,0 9.5023643,0.160196 9.5023643,0.160196 V 2.9999227 H 8.1917966 c -1.3353665,0 -1.8567538,0.4061898 -1.8567538,1.5291607 V 6.6043299 H 9.4523654 L 9.1747724,9.6625514 H 6.3349429 Z M 14.980628,6.3599362 c -0.0549,0 -0.111397,0.00201 -0.167295,0.0034 -3.493914,0 -5.092474,2.6281323 -5.092474,6.3588358 0,4.699679 2.073548,6.580629 5.119773,6.580629 1.742857,0 2.887928,-0.733578 3.583911,-2.102543 v 1.856749 h 3.583911 V 6.6056299 H 18.424543 V 8.5204806 C 17.856257,7.2885123 16.679186,6.3745359 14.980628,6.3599362 Z m 0.911278,2.9422243 c 1.467463,0 2.348242,1.0235735 2.348242,2.7646295 l 0.0034,1.778254 c 0,1.173468 -0.727482,2.546334 -2.351642,2.546334 -2.496938,0 -2.43024,-2.696131 -2.43024,-3.594107 0,-3.0206228 1.330367,-3.4951105 2.43024,-3.4951105 z m 7.563912,3.5298095 c 0,-1.513062 -0.0724,-6.4639339 6.377842,-6.4639339 2.589236,0 3.670409,0.8232788 3.670409,0.8232788 l -0.868978,2.6952307 c 0,0 -1.079774,-0.5945847 -2.486739,-0.5945847 -1.802055,0 -2.951927,1.0446731 -2.951927,2.8827251 l 0.002,1.317966 c 0,1.766155 1.109473,2.945124 2.953627,2.945124 1.281768,0 2.463139,-0.600184 2.463139,-0.600184 l 0.866779,2.638933 c 0,0 -0.988576,0.828477 -3.63021,0.828477 -6.141648,0 -6.395842,-4.441885 -6.395842,-6.473032 z M 54.517849,6.3633362 c 3.494015,0 5.117774,2.6281323 5.117774,6.3588358 0,4.699681 -2.073654,6.580632 -5.119874,6.580632 -1.742861,0 -3.031228,-0.733485 -3.727208,-2.102548 v 1.856753 l -3.538811,-0.0012 V 0.37859038 L 51.007035,0.05089891 V 8.3517851 c 0.542289,-1.4522629 2.324442,-1.9884489 3.510912,-1.9884489 z m -1.053374,2.9388243 c -1.467464,0 -2.45744,1.0235735 -2.45744,2.7646295 l -0.0037,1.778254 c -0.002,1.173468 0.685584,2.546334 2.460942,2.546334 2.496938,0 2.430237,-2.696131 2.430237,-3.594107 0,-3.0206228 -1.330265,-3.4951105 -2.430237,-3.4951105 z M 40.023305,6.373636 c -3.962899,0 -6.055047,2.1606442 -6.055047,6.000345 v 0.713381 c 0,4.983573 2.938027,6.266638 6.440739,6.266638 3.404616,0 4.94568,-0.952275 4.94568,-0.952275 l -0.703086,-2.535934 c 0,0 -1.812751,0.771279 -3.792105,0.771279 -2.051947,0 -2.934427,-0.522984 -3.160621,-2.494934 h 7.956206 v -2.034447 c 0,-4.1650933 -2.348047,-5.7341529 -5.631864,-5.7341529 z m 0.0955,2.5393345 c 1.371768,0 2.260646,0.8411783 2.211849,2.7920285 h -4.624888 c 0.0802,-2.0532475 1.038775,-2.7919286 2.413039,-2.7919286 z M 67.127532,6.3565363 c -4.069595,0 -6.212042,2.2933411 -6.212042,6.4031357 0,5.638855 3.693109,6.54653 6.218843,6.54653 3.697506,0 6.157448,-1.990647 6.157448,-6.495332 0,-4.6885792 -2.765931,-6.4543337 -6.164249,-6.4543337 z m -0.0512,2.9558241 c 1.789458,0 2.49854,1.3392656 2.49854,2.8637256 v 1.310667 c 0,1.846752 -0.992171,2.914922 -2.505336,2.914922 -1.415166,0 -2.409742,-0.999172 -2.409742,-2.914922 v -1.310667 c 0,-2.043147 1.18347,-2.8637256 2.416538,-2.8637256 z M 80.776997,6.3565363 c -4.069599,0 -6.212047,2.2933411 -6.212047,6.4031357 0,5.638855 3.693109,6.54653 6.218847,6.54653 3.697405,0 6.157445,-1.990647 6.157445,-6.495332 0,-4.6885792 -2.766031,-6.4543337 -6.164245,-6.4543337 z m -0.0512,2.9558241 c 1.789454,0 2.498433,1.3392656 2.498433,2.8637256 v 1.310667 c 0,1.846752 -0.992175,2.914922 -2.505234,2.914922 -1.41517,0 -2.409745,-0.999172 -2.409745,-2.914922 v -1.310667 c 0,-2.043147 1.183473,-2.8637256 2.416546,-2.8637256 z m 7.63531,9.7433466 V 0.37859038 L 92.129312,0.05099882 V 12.569576 l 3.738511,-5.9651462 h 3.979499 l -3.899904,6.1781412 4.050102,6.273136 h -3.990803 l -3.877405,-6.091241 v 6.091241 z"
       fill="#1877f2"
       id="path3662"
       style="stroke-width:0.0999975" /></g></svg>
