<?xml version="1.0" encoding="UTF-8" standalone="no"?>
<!-- Created with Inkscape (http://www.inkscape.org/) -->

<svg
   width="117.9874mm"
   height="38.602028mm"
   viewBox="0 0 117.9874 38.602028"
   version="1.1"
   id="svg5"
   xml:space="preserve"
   xmlns="http://www.w3.org/2000/svg"
   xmlns:svg="http://www.w3.org/2000/svg"><defs
     id="defs2" /><g
     id="layer1"
     transform="translate(-47.773278,-87.813741)"><g
       id="g857"
       transform="translate(3.2765726,15.128634)"><g
         aria-label="Villa Monte Kariotes"
         id="text6708"
         style="font-size:4.31657px;font-family:Leelawadee;-inkscape-font-specification:'Leelawadee, Normal';fill:#ffffff;stroke-width:0.359713"
         transform="matrix(3.1179209,0,0,3.1179209,-242.67534,-277.10747)"><path
           d="m 94.708815,121.49533 -1.119188,3.02245 h -0.389925 l -1.096004,-3.02245 h 0.39414 l 0.836757,2.39646 q 0.04005,0.11592 0.06112,0.26768 h 0.0084 q 0.01686,-0.12646 0.06955,-0.2719 l 0.853619,-2.39224 z"
           style="text-align:center;text-anchor:middle;fill:#ffffff"
           id="path914" /><path
           d="m 95.250494,121.81149 q -0.09274,0 -0.158077,-0.0632 -0.06534,-0.0632 -0.06534,-0.16019 0,-0.097 0.06534,-0.16018 0.06534,-0.0653 0.158077,-0.0653 0.09485,0 0.160186,0.0653 0.06745,0.0632 0.06745,0.16018 0,0.0927 -0.06745,0.15808 -0.06534,0.0653 -0.160186,0.0653 z m 0.168616,2.10348 q 0,0.29719 0.22974,0.29719 0.09274,0 0.166508,-0.0232 v 0.31193 q -0.04005,0.0105 -0.107493,0.019 -0.06534,0.0105 -0.139108,0.0105 -0.103277,0 -0.193908,-0.0337 -0.09063,-0.0337 -0.158078,-0.10328 -0.06534,-0.0696 -0.105385,-0.17283 -0.03794,-0.10538 -0.03794,-0.24449 v -1.61661 h 0.345662 z"
           style="text-align:center;text-anchor:middle;fill:#ffffff"
           id="path916" /><path
           d="m 96.513007,123.91497 q 0,0.29719 0.229739,0.29719 0.09274,0 0.166508,-0.0232 v 0.31193 q -0.04005,0.0105 -0.107492,0.019 -0.06534,0.0105 -0.139108,0.0105 -0.103278,0 -0.193909,-0.0337 -0.09063,-0.0337 -0.158077,-0.10328 -0.06534,-0.0696 -0.105385,-0.17283 -0.03794,-0.10538 -0.03794,-0.24449 v -2.6536 h 0.345663 z"
           style="text-align:center;text-anchor:middle;fill:#ffffff"
           id="path918" /><path
           d="m 97.606903,123.91497 q 0,0.29719 0.22974,0.29719 0.09274,0 0.166508,-0.0232 v 0.31193 q -0.04005,0.0105 -0.107493,0.019 -0.06534,0.0105 -0.139108,0.0105 -0.103277,0 -0.193909,-0.0337 -0.09063,-0.0337 -0.158077,-0.10328 -0.06534,-0.0696 -0.105385,-0.17283 -0.03794,-0.10538 -0.03794,-0.24449 v -2.6536 h 0.345663 z"
           style="text-align:center;text-anchor:middle;fill:#ffffff"
           id="path920" /><path
           d="m 99.923266,124.51778 h -0.345663 v -0.33724 h -0.0084 q -0.225524,0.38782 -0.663926,0.38782 -0.322478,0 -0.505848,-0.17072 -0.181262,-0.17073 -0.181262,-0.45316 0,-0.60491 0.712403,-0.70397 l 0.647064,-0.0906 q 0,-0.55011 -0.444725,-0.55011 -0.389924,0 -0.703972,0.26557 v -0.35409 q 0.318263,-0.20234 0.73348,-0.20234 0.76088,0 0.76088,0.80514 z m -0.345663,-1.09179 -0.520602,0.0717 q -0.240278,0.0337 -0.362525,0.12014 -0.122246,0.0843 -0.122246,0.3014 0,0.15808 0.111708,0.25925 0.113816,0.0991 0.301401,0.0991 0.25714,0 0.423648,-0.17916 0.168616,-0.18126 0.168616,-0.45737 z"
           style="text-align:center;text-anchor:middle;fill:#ffffff"
           id="path922" /><path
           d="m 104.54756,124.51778 h -0.35199 v -2.02761 q 0,-0.12014 0.006,-0.27189 0.008,-0.15387 0.0232,-0.32881 h -0.008 q -0.0127,0.0506 -0.0379,0.11382 -0.0253,0.0611 -0.0548,0.12014 -0.0274,0.0569 -0.0527,0.10328 -0.0232,0.0464 -0.0337,0.0696 l -0.77564,1.43324 h -0.17283 l -0.77563,-1.42902 q -0.0105,-0.0253 -0.0358,-0.0717 -0.0253,-0.0485 -0.0527,-0.10538 -0.0274,-0.059 -0.0527,-0.12014 -0.0232,-0.0611 -0.0358,-0.11382 h -0.008 q 0.008,0.0906 0.0126,0.2445 0.004,0.15386 0.004,0.36041 v 2.0234 h -0.34145 v -3.02245 h 0.44262 l 0.78407,1.43746 q 0.0506,0.0948 0.0864,0.17704 0.0358,0.0822 0.0527,0.14333 h 0.0126 q 0.0211,-0.0632 0.0548,-0.14754 0.0358,-0.0843 0.0906,-0.18126 l 0.78196,-1.42903 h 0.4384 z"
           style="text-align:center;text-anchor:middle;fill:#ffffff"
           id="path924" /><path
           d="m 106.19578,124.56836 q -0.47845,0 -0.76509,-0.3014 -0.28454,-0.30351 -0.28454,-0.80303 0,-0.54379 0.29718,-0.84941 0.29719,-0.30561 0.80304,-0.30561 0.48266,0 0.75245,0.29718 0.27189,0.29719 0.27189,0.82411 0,0.51639 -0.29297,0.82833 -0.29086,0.30983 -0.78196,0.30983 z m 0.0253,-1.96859 q -0.33301,0 -0.52692,0.22763 -0.19391,0.22552 -0.19391,0.62388 0,0.3836 0.19602,0.60491 0.19601,0.22131 0.52481,0.22131 0.33513,0 0.51428,-0.21709 0.18126,-0.2171 0.18126,-0.61756 0,-0.40468 -0.18126,-0.62388 -0.17915,-0.2192 -0.51428,-0.2192 z"
           style="text-align:center;text-anchor:middle;fill:#ffffff"
           id="path926" /><path
           d="m 109.61447,124.51778 h -0.34566 v -1.2309 q 0,-0.68711 -0.50163,-0.68711 -0.25925,0 -0.42998,0.19602 -0.16861,0.1939 -0.16861,0.49109 v 1.2309 h -0.34566 v -2.15829 h 0.34566 v 0.35831 h 0.008 q 0.24449,-0.40889 0.70819,-0.40889 0.35409,0 0.54168,0.22974 0.18758,0.22763 0.18758,0.65971 z"
           style="text-align:center;text-anchor:middle;fill:#ffffff"
           id="path928" /><path
           d="m 111.26691,124.4967 q -0.12225,0.0674 -0.32248,0.0674 -0.56697,0 -0.56697,-0.63231 v -1.27727 h -0.37096 v -0.29508 h 0.37096 v -0.52692 l 0.34566,-0.11171 v 0.63863 h 0.54379 v 0.29508 h -0.54379 v 1.21614 q 0,0.2171 0.0738,0.30983 0.0738,0.0927 0.24449,0.0927 0.13068,0 0.22553,-0.0717 z"
           style="text-align:center;text-anchor:middle;fill:#ffffff"
           id="path930" /><path
           d="m 113.42941,123.52505 h -1.52387 q 0.008,0.36042 0.19391,0.55643 0.18548,0.19602 0.51006,0.19602 0.36463,0 0.67025,-0.24028 v 0.32459 q -0.28454,0.20655 -0.75245,0.20655 -0.45737,0 -0.71872,-0.29297 -0.26136,-0.29508 -0.26136,-0.82833 0,-0.50374 0.28454,-0.81989 0.28665,-0.31826 0.7103,-0.31826 0.42364,0 0.65549,0.274 0.23185,0.274 0.23185,0.76088 z m -0.3541,-0.29297 q -0.002,-0.29929 -0.14543,-0.4658 -0.14121,-0.16651 -0.39414,-0.16651 -0.24449,0 -0.41521,0.17494 -0.17073,0.17494 -0.21077,0.45737 z"
           style="text-align:center;text-anchor:middle;fill:#ffffff"
           id="path932" /><path
           d="m 117.28439,124.51778 h -0.4932 l -1.16767,-1.38265 q -0.0653,-0.078 -0.0801,-0.10539 h -0.008 v 1.48804 h -0.35409 v -3.02245 h 0.35409 v 1.42059 h 0.008 q 0.0295,-0.0464 0.0801,-0.10327 l 1.12973,-1.31732 h 0.44051 l -1.29624,1.4501 z"
           style="text-align:center;text-anchor:middle;fill:#ffffff"
           id="path934" /><path
           d="m 119.18343,124.51778 h -0.34566 v -0.33724 h -0.008 q -0.22553,0.38782 -0.66393,0.38782 -0.32248,0 -0.50585,-0.17072 -0.18126,-0.17073 -0.18126,-0.45316 0,-0.60491 0.7124,-0.70397 l 0.64707,-0.0906 q 0,-0.55011 -0.44473,-0.55011 -0.38992,0 -0.70397,0.26557 v -0.35409 q 0.31826,-0.20234 0.73348,-0.20234 0.76088,0 0.76088,0.80514 z m -0.34566,-1.09179 -0.52061,0.0717 q -0.24027,0.0337 -0.36252,0.12014 -0.12225,0.0843 -0.12225,0.3014 0,0.15808 0.11171,0.25925 0.11382,0.0991 0.3014,0.0991 0.25714,0 0.42365,-0.17916 0.16862,-0.18126 0.16862,-0.45737 z"
           style="text-align:center;text-anchor:middle;fill:#ffffff"
           id="path936" /><path
           d="m 120.96022,122.70937 q -0.0906,-0.0696 -0.26135,-0.0696 -0.22131,0 -0.37096,0.20866 -0.14754,0.20866 -0.14754,0.56908 v 1.10022 h -0.34566 v -2.15829 h 0.34566 v 0.44473 h 0.008 q 0.0738,-0.22764 0.22553,-0.3541 0.15175,-0.12857 0.33934,-0.12857 0.13489,0 0.20655,0.0295 z"
           style="text-align:center;text-anchor:middle;fill:#ffffff"
           id="path938" /><path
           d="m 121.48925,121.81149 q -0.0927,0 -0.15807,-0.0632 -0.0653,-0.0632 -0.0653,-0.16019 0,-0.097 0.0653,-0.16018 0.0653,-0.0653 0.15807,-0.0653 0.0949,0 0.16019,0.0653 0.0675,0.0632 0.0675,0.16018 0,0.0927 -0.0675,0.15808 -0.0653,0.0653 -0.16019,0.0653 z m 0.16862,2.10348 q 0,0.29719 0.22974,0.29719 0.0927,0 0.16651,-0.0232 v 0.31193 q -0.04,0.0105 -0.1075,0.019 -0.0653,0.0105 -0.1391,0.0105 -0.10328,0 -0.19391,-0.0337 -0.0906,-0.0337 -0.15808,-0.10328 -0.0653,-0.0696 -0.10538,-0.17283 -0.0379,-0.10538 -0.0379,-0.24449 v -1.61661 h 0.34566 z"
           style="text-align:center;text-anchor:middle;fill:#ffffff"
           id="path940" /><path
           d="m 123.33138,124.56836 q -0.47845,0 -0.76509,-0.3014 -0.28454,-0.30351 -0.28454,-0.80303 0,-0.54379 0.29718,-0.84941 0.29719,-0.30561 0.80304,-0.30561 0.48266,0 0.75245,0.29718 0.27189,0.29719 0.27189,0.82411 0,0.51639 -0.29297,0.82833 -0.29086,0.30983 -0.78196,0.30983 z m 0.0253,-1.96859 q -0.33301,0 -0.52692,0.22763 -0.19391,0.22552 -0.19391,0.62388 0,0.3836 0.19602,0.60491 0.19601,0.22131 0.52481,0.22131 0.33513,0 0.51428,-0.21709 0.18127,-0.2171 0.18127,-0.61756 0,-0.40468 -0.18127,-0.62388 -0.17915,-0.2192 -0.51428,-0.2192 z"
           style="text-align:center;text-anchor:middle;fill:#ffffff"
           id="path942" /><path
           d="m 125.95968,124.4967 q -0.12224,0.0674 -0.32247,0.0674 -0.56698,0 -0.56698,-0.63231 v -1.27727 h -0.37095 v -0.29508 h 0.37095 v -0.52692 l 0.34567,-0.11171 v 0.63863 h 0.54378 v 0.29508 h -0.54378 v 1.21614 q 0,0.2171 0.0738,0.30983 0.0738,0.0927 0.24449,0.0927 0.13068,0 0.22552,-0.0717 z"
           style="text-align:center;text-anchor:middle;fill:#ffffff"
           id="path944" /><path
           d="m 128.12219,123.52505 h -1.52387 q 0.008,0.36042 0.19391,0.55643 0.18548,0.19602 0.51006,0.19602 0.36463,0 0.67025,-0.24028 v 0.32459 q -0.28454,0.20655 -0.75245,0.20655 -0.45737,0 -0.71872,-0.29297 -0.26136,-0.29508 -0.26136,-0.82833 0,-0.50374 0.28454,-0.81989 0.28665,-0.31826 0.7103,-0.31826 0.42364,0 0.65549,0.274 0.23185,0.274 0.23185,0.76088 z m -0.3541,-0.29297 q -0.002,-0.29929 -0.14543,-0.4658 -0.14121,-0.16651 -0.39414,-0.16651 -0.24449,0 -0.41521,0.17494 -0.17073,0.17494 -0.21077,0.45737 z"
           style="text-align:center;text-anchor:middle;fill:#ffffff"
           id="path946" /><path
           d="m 128.51422,124.43979 v -0.37095 q 0.28243,0.20866 0.62177,0.20866 0.45526,0 0.45526,-0.30351 0,-0.0864 -0.0401,-0.14543 -0.0379,-0.0611 -0.10538,-0.10749 -0.0653,-0.0464 -0.15597,-0.0822 -0.0885,-0.0379 -0.1918,-0.078 -0.14332,-0.0569 -0.25293,-0.11382 -0.10749,-0.059 -0.18126,-0.13067 -0.0717,-0.0738 -0.1096,-0.16651 -0.0358,-0.0927 -0.0358,-0.21709 0,-0.15176 0.0696,-0.26768 0.0696,-0.11803 0.18547,-0.19602 0.11593,-0.0801 0.26347,-0.12014 0.14964,-0.04 0.30772,-0.04 0.28032,0 0.50163,0.097 v 0.34988 q -0.23817,-0.15597 -0.548,-0.15597 -0.0969,0 -0.17494,0.0232 -0.078,0.0211 -0.13489,0.0611 -0.0548,0.04 -0.0864,0.097 -0.0295,0.0548 -0.0295,0.12225 0,0.0843 0.0295,0.14121 0.0316,0.0569 0.0906,0.10117 0.059,0.0443 0.14333,0.0801 0.0843,0.0358 0.1918,0.078 0.14332,0.0548 0.25714,0.11382 0.11381,0.0569 0.19391,0.13067 0.0801,0.0717 0.12224,0.16651 0.0443,0.0948 0.0443,0.22553 0,0.16018 -0.0717,0.27821 -0.0696,0.11803 -0.18758,0.19602 -0.11803,0.078 -0.2719,0.11592 -0.15386,0.0379 -0.32247,0.0379 -0.33302,0 -0.57751,-0.12857 z"
           style="text-align:center;text-anchor:middle;fill:#ffffff"
           id="path948" /></g><circle
         style="fill:#0092cc;fill-opacity:1;stroke:none;stroke-width:0.254121;stroke-dasharray:none"
         id="circle6712"
         cx="103.49033"
         cy="83.084419"
         r="10.399315" /><g
         aria-label="75"
         id="text6748"
         style="font-size:3.8862px;font-family:Leelawadee;-inkscape-font-specification:'Leelawadee, Normal';text-align:center;text-anchor:middle;fill:#ffffff;stroke-width:0.0795599"
         transform="matrix(3.1075307,0,0,3.1075307,-76.701013,-224.66087)"><path
           d="m 57.842107,97.828096 q -0.06262,0.108161 -0.151805,0.269453 -0.08729,0.161293 -0.185961,0.362434 -0.09867,0.201141 -0.201141,0.432643 -0.102468,0.231503 -0.191653,0.478185 -0.08919,0.246683 -0.157498,0.500956 -0.06641,0.252373 -0.09678,0.497163 h -0.33397 q 0.03416,-0.24289 0.104365,-0.495266 0.07211,-0.254273 0.161293,-0.49716 0.09108,-0.244785 0.191653,-0.470595 0.100571,-0.225809 0.195449,-0.415565 0.09488,-0.189756 0.172678,-0.33397 0.0797,-0.146112 0.127136,-0.227707 h -1.364345 v -0.280839 h 1.730574 z"
           style="stroke-width:0.07956"
           id="path951" /><path
           d="m 59.859212,99.537796 q 0,0.199244 -0.06831,0.360536 -0.06831,0.161288 -0.195448,0.277048 -0.125239,0.11575 -0.303609,0.17837 -0.178371,0.0626 -0.39659,0.0626 -0.379512,0 -0.563575,-0.11386 v -0.330173 q 0.277043,0.178373 0.56737,0.178373 0.148009,0 0.265658,-0.0436 0.119546,-0.0436 0.203039,-0.12144 0.08349,-0.0778 0.127136,-0.187858 0.04554,-0.110059 0.04554,-0.24099 0,-0.265658 -0.178371,-0.415565 -0.17837,-0.151805 -0.518033,-0.151805 -0.05503,0 -0.115751,0.0019 -0.06072,0.0019 -0.121444,0.0057 -0.06072,0.0019 -0.119546,0.0057 -0.05693,0.0038 -0.104366,0.0095 l 0.09298,-1.364345 h 1.258082 v 0.280839 h -0.988628 l -0.05503,0.798872 q 0.06072,-0.0038 0.129034,-0.0057 0.06831,-0.0038 0.121444,-0.0038 0.216322,0 0.387102,0.05693 0.17078,0.05693 0.288429,0.16319 0.119546,0.104366 0.180268,0.258068 0.06262,0.151804 0.06262,0.34156 z"
           style="stroke-width:0.07956"
           id="path953" /></g></g></g></svg>
